<svg xmlns="http://www.w3.org/2000/svg" viewBox="0 0 138.5 35.5"><defs><style>.a{fill:#2f2c2a;}.b{fill:#b92123;}.c{fill:#ffda00;}.d{fill:#0087cc;}</style></defs><title>full_logo_black</title><path class="a" d="M47.77,8.9v2.67H43.66v14H40.85v-14h-4V8.9H47.77Z"/><path class="a" d="M48.32,7.72h2.19V18.19a4.64,4.64,0,0,1,1.42-1.87,3.83,3.83,0,0,1,2.35-.73,3.46,3.46,0,0,1,2.4.8,2.85,2.85,0,0,1,.94,2.12v7H55.44v-6a2,2,0,0,0-.5-1.22,1.93,1.93,0,0,0-1.42-.56A3.06,3.06,0,0,0,52.3,18a2.91,2.91,0,0,0-1,.65,2.83,2.83,0,0,0-.62,1,3.44,3.44,0,0,0-.22,1.23v4.68H48.32V7.72Z"/><path class="a" d="M67.06,24.42a5.14,5.14,0,0,1-1.71,1,6,6,0,0,1-2.05.37,5.14,5.14,0,0,1-2-.4,5.07,5.07,0,0,1-1.64-1.1,5.32,5.32,0,0,1-1.11-1.62,5,5,0,0,1,0-3.95,5.33,5.33,0,0,1,1.11-1.62A5.17,5.17,0,0,1,61.25,16a4.88,4.88,0,0,1,2-.4,4.49,4.49,0,0,1,2.89,1,5.38,5.38,0,0,1,1.77,2.61l-1.59.6-1.88.74-2,.79-1.8.72a3.08,3.08,0,0,0,1.07,1.14,2.84,2.84,0,0,0,1.55.43,3.53,3.53,0,0,0,1.2-.22,2.81,2.81,0,0,0,1-.58Zm-1.92-5.71A1.67,1.67,0,0,0,64.32,18a2.67,2.67,0,0,0-1.07-.24,2.88,2.88,0,0,0-1.16.24,2.92,2.92,0,0,0-.94.64,3.1,3.1,0,0,0-.62.91,2.59,2.59,0,0,0-.23,1.06v0.09l1.22-.49,1.3-.54,1.24-.51Z"/><path class="a" d="M68.22,25.54V8.9h4.54A9.68,9.68,0,0,1,75,9.14a4.76,4.76,0,0,1,1.71.75,3.32,3.32,0,0,1,1.08,1.35,4.83,4.83,0,0,1,.38,2A6.11,6.11,0,0,1,78,14.48a3.94,3.94,0,0,1-.41,1.12,3.26,3.26,0,0,1-.74.9,3.12,3.12,0,0,1-1.14.59,5.08,5.08,0,0,1,1.15.39,3.56,3.56,0,0,1,1,.74,3.61,3.61,0,0,1,.74,1.16A4.29,4.29,0,0,1,79,21a4.26,4.26,0,0,1-.47,2.07,4.15,4.15,0,0,1-1.23,1.4,5.14,5.14,0,0,1-1.77.8,8.51,8.51,0,0,1-2.08.25h-5.2ZM71,11.44V16h2.1a2.1,2.1,0,0,0,1.72-.68,2.52,2.52,0,0,0,.56-1.64A2,2,0,0,0,74.7,12a2.92,2.92,0,0,0-1.85-.54H71Zm0,6.89V23H73.2a4.45,4.45,0,0,0,1.16-.15,3.06,3.06,0,0,0,1-.43A2,2,0,0,0,76,21.7a2.25,2.25,0,0,0,.23-1,2.08,2.08,0,0,0-.27-1.11,2.13,2.13,0,0,0-.73-0.72,3.2,3.2,0,0,0-1-.39,6.29,6.29,0,0,0-1.2-.11H71Z"/><path class="a" d="M79,20.68a5,5,0,0,1,1.51-3.58A5.34,5.34,0,0,1,82.13,16a5.34,5.34,0,0,1,4.05,0,5,5,0,0,1,1.61,1.08,5.1,5.1,0,0,1,1.45,3.58,5.27,5.27,0,0,1-.38,2A4.91,4.91,0,0,1,87.8,24.3a5,5,0,0,1-1.62,1.1,5.18,5.18,0,0,1-2.05.4,5.48,5.48,0,0,1-2-.37,4.86,4.86,0,0,1-1.63-1,5,5,0,0,1-1.11-1.62A5.19,5.19,0,0,1,79,20.68Zm2.17,0a3,3,0,0,0,4.1,2.72,2.94,2.94,0,0,0,.94-0.63,3.1,3.1,0,0,0,.64-0.94,2.89,2.89,0,0,0,0-2.3A3.06,3.06,0,0,0,85.24,18a2.9,2.9,0,0,0-2.31,0,3.09,3.09,0,0,0-.94.64A2.93,2.93,0,0,0,81.14,20.7Z"/><path class="a" d="M89.2,20.68A5,5,0,0,1,90.7,17.1,5.34,5.34,0,0,1,92.36,16a5.34,5.34,0,0,1,4.05,0A5,5,0,0,1,98,17.1a5.1,5.1,0,0,1,1.45,3.58,5.27,5.27,0,0,1-.38,2A4.91,4.91,0,0,1,98,24.3a5,5,0,0,1-1.62,1.1,5.18,5.18,0,0,1-2.05.4,5.48,5.48,0,0,1-2-.37,4.86,4.86,0,0,1-1.63-1,5,5,0,0,1-1.11-1.62A5.19,5.19,0,0,1,89.2,20.68Zm2.17,0a3,3,0,0,0,4.1,2.72,2.94,2.94,0,0,0,.94-0.63A3.1,3.1,0,0,0,97,21.86a2.89,2.89,0,0,0,0-2.3A3.06,3.06,0,0,0,95.46,18a2.9,2.9,0,0,0-2.31,0,3.09,3.09,0,0,0-.94.64A2.93,2.93,0,0,0,91.36,20.7Z"/><path class="a" d="M107,15.61l1.3,1.28q-0.87.8-1.65,1.56T105,20q1,1.37,2,2.76t2,2.76h-2.51q-0.75-1-1.53-2t-1.51-2l-1.26,1.14v2.94H100V7.72h2.19V20.06q1.23-1.16,2.4-2.23T107,15.61Z"/><path class="a" d="M108.73,12.08a1.26,1.26,0,0,1,.43-1,1.38,1.38,0,0,1,.94-0.39,1.34,1.34,0,0,1,.92.39,1.36,1.36,0,0,1,0,2,1.36,1.36,0,0,1-.92.38,1.4,1.4,0,0,1-.94-0.38A1.25,1.25,0,0,1,108.73,12.08Zm2.44,13.47H109v-9.7h2.19v9.7Z"/><path class="a" d="M112.36,15.84h1.92q0,0.82.1,1.33t0.1,1.15a4.92,4.92,0,0,1,1.48-2,3.76,3.76,0,0,1,2.4-.75,3.35,3.35,0,0,1,2.36.81,2.89,2.89,0,0,1,.92,2.11v7h-2.17v-6a2,2,0,0,0-.5-1.22,1.93,1.93,0,0,0-1.42-.56,3.06,3.06,0,0,0-1.22.24,2.91,2.91,0,0,0-1,.65,2.83,2.83,0,0,0-.62,1,3.44,3.44,0,0,0-.22,1.23v4.68h-2.19v-9.7Z"/><path class="a" d="M122.18,20.75a5.34,5.34,0,0,1,.39-2,5.15,5.15,0,0,1,1.06-1.64,4.83,4.83,0,0,1,3.5-1.47,4.19,4.19,0,0,1,1.37.21,4.83,4.83,0,0,1,1,.46,3.24,3.24,0,0,1,.62.48L130.37,17a3.59,3.59,0,0,1,0-.55,4.06,4.06,0,0,0,0-.62h2.1V25a5.89,5.89,0,0,1-.39,2.2,4.44,4.44,0,0,1-1.08,1.62,4.69,4.69,0,0,1-1.67,1,6.37,6.37,0,0,1-2.13.34,6,6,0,0,1-1.56-.18,5.46,5.46,0,0,1-1.21-.48,6.53,6.53,0,0,1-1-.66q-0.45-.36-0.86-0.73l1.42-1.48a7.57,7.57,0,0,0,1.37,1,4,4,0,0,0,4-.26,2.36,2.36,0,0,0,.84-1.94V25.21a2.12,2.12,0,0,1,0-.31,1.32,1.32,0,0,1,0-.37,1,1,0,0,0,0-.27q-0.21.23-.49,0.5a3.49,3.49,0,0,1-.69.5,4.13,4.13,0,0,1-.92.38,4.47,4.47,0,0,1-1.21.15,5.08,5.08,0,0,1-2-.39,4.74,4.74,0,0,1-1.57-1.07,4.87,4.87,0,0,1-1-1.6A5.3,5.3,0,0,1,122.18,20.75Zm2.19-.09a3.2,3.2,0,0,0,.22,1.19,2.76,2.76,0,0,0,.62.95,2.9,2.9,0,0,0,.95.63,3.11,3.11,0,0,0,1.21.23,3.2,3.2,0,0,0,1.22-.23,2.78,2.78,0,0,0,1-.64,2.89,2.89,0,0,0,.62-1,3.14,3.14,0,0,0,.22-1.16,3.06,3.06,0,0,0-.22-1.15,2.67,2.67,0,0,0-.62-0.92,3,3,0,0,0-1-.62,3.2,3.2,0,0,0-1.22-.23,3.26,3.26,0,0,0-1.21.22,2.75,2.75,0,0,0-.95.62,2.79,2.79,0,0,0-.62.94A3,3,0,0,0,124.37,20.66Z"/><rect class="b" x="5.14" y="14.91" width="7.74" height="4.84" transform="translate(-1.9 1.13) rotate(-6.5)"/><rect class="c" x="16.04" y="20.96" width="7.74" height="4.84" transform="translate(-2.52 2.4) rotate(-6.5)"/><rect class="d" x="24.49" y="5.41" width="7.74" height="4.84" transform="translate(-0.7 3.26) rotate(-6.5)"/></svg>