<svg id="e093048f-9ef5-4ee3-8bd1-21c633817f48" data-name="Layer 1" xmlns="http://www.w3.org/2000/svg" viewBox="0 0 512 512" width="32px"><title>tbk-hook-mce-icon-repeat</title><path id="a8c3cdcb-2176-4298-adf9-87e652ce05f7" data-name="d95zhFVama" d="M473.49,64L405.77,448" style="fill:#b2002a;fill-opacity:0;stroke:#ffba00;stroke-width:20px"/><path d="M175.85,239.24l-3.48,27.52h28.39v35.92h-33.6l-7.53,53.87h-36.5L131,302.68H102.28l-7.53,53.87H58.84l7.24-53.87H38.85V266.76H71.29l3.77-27.52h-29V203.33H80l7.24-51.27h35.92l-7.24,51.27h29l7-51.27H188l-7,51.27h26.36v35.92H175.85Zm-64.88,0-3.77,27.52h28.67l4.05-27.52H111Z" style="fill:#262626"/><path d="M369,239.24l-3.48,27.52H394v35.92h-33.6l-7.53,53.87h-36.5l7.82-53.87H295.48l-7.53,53.87H252l7.24-53.87H232V266.76h32.44l3.77-27.52h-29V203.33h33.89l7.24-51.27h35.92l-7.24,51.27h29l7-51.27h36.21l-7,51.27h26.36v35.92H369Zm-64.88,0-3.77,27.52h28.67l4.05-27.52h-29Z" style="fill:#262626"/></svg>